ffmpeg started on 2025-06-04 at 20:53:55
Report written to "D:\Convert\FFMetrics\reports\psnr_report-6.txt"
Log level: 32
Command line:
ffmpeg -hide_banner -nostdin -i "G:\\\xc0\xed\xe8\xec\xe5\\\xce\xed\xe3\xee\xe8\xed\xe3\xe8\\!_36_\xce\xf1\xe5\xed\xfc_2024\\DreamCast\\\xc4\xe5\xf2\xf1\xea\xe0\xff \xc4\xe5\xeb\xe8\xea\xee\\[DC] Delicos Nursery - 10_Telegram_HEVC.mkv" -i "G:\\\xc0\xed\xe8\xec\xe5\\\xce\xed\xe3\xee\xe8\xed\xe3\xe8\\!_36_\xce\xf1\xe5\xed\xfc_2024\\DreamCast\\\xc4\xe5\xf2\xf1\xea\xe0\xff \xc4\xe5\xeb\xe8\xea\xee\\[DC] Delicos Nursery - 10_Telegram.mp4" -lavfi "[0:v]settb=AVTB,setpts=PTS-STARTPTS,format=pix_fmts=yuv420p10,fps=24000/1001,scale=1920:1080:flags=bicubic[main];[1:v]settb=AVTB,setpts=PTS-STARTPTS,format=pix_fmts=yuv420p,fps=24000/1001,scale=1920:1080:flags=bicubic[ref];[main][ref]psnr=eof_action=endall:stats_file='D\\:/Convert/FFMetrics/logs/psnr_logfile-6.txt'" -f null -
Input #0, matroska,webm, from 'G:\Аниме\Онгоинги\!_36_Осень_2024\DreamCast\Детская Делико\[DC] Delicos Nursery - 10_Telegram_HEVC.mkv':
  Metadata:
    COMPATIBLE_BRANDS: isomiso2avc1mp41
    MAJOR_BRAND     : isom
    MINOR_VERSION   : 512
    ENCODER         : Lavf61.7.100
  Duration: 00:23:46.65, start: -0.021000, bitrate: 1472 kb/s
  Stream #0:0: Video: hevc (Main 10), yuv420p10le(tv, bt709, progressive), 1920x1080 [SAR 1:1 DAR 16:9], 23.98 fps, 23.98 tbr, 1k tbn (default)
      Metadata:
        HANDLER_NAME    : VideoHandler
        VENDOR_ID       : [0][0][0][0]
        ENCODER         : Lavc61.19.100 libx265
        BPS             : 1275168
        DURATION        : 00:23:46.549708333
        NUMBER_OF_FRAMES: 34203
        NUMBER_OF_BYTES : 227386375
        _STATISTICS_WRITING_APP: mkvpropedit v66.0.0 ('Josie') 64-bit
        _STATISTICS_WRITING_DATE_UTC: 2025-05-30 13:32:50
        _STATISTICS_TAGS: BPS DURATION NUMBER_OF_FRAMES NUMBER_OF_BYTES
  Stream #0:1: Audio: aac (LC), 48000 Hz, stereo, fltp (default)
      Metadata:
        HANDLER_NAME    : SoundHandler
        VENDOR_ID       : [0][0][0][0]
        ENCODER         : Lavc61.19.100 aac
        BPS             : 192944
        DURATION        : 00:23:46.645000000
        NUMBER_OF_FRAMES: 66875
        NUMBER_OF_BYTES : 34407856
        _STATISTICS_WRITING_APP: mkvpropedit v66.0.0 ('Josie') 64-bit
        _STATISTICS_WRITING_DATE_UTC: 2025-05-30 13:32:50
        _STATISTICS_TAGS: BPS DURATION NUMBER_OF_FRAMES NUMBER_OF_BYTES
Input #1, mov,mp4,m4a,3gp,3g2,mj2, from 'G:\Аниме\Онгоинги\!_36_Осень_2024\DreamCast\Детская Делико\[DC] Delicos Nursery - 10_Telegram.mp4':
  Metadata:
    major_brand     : isom
    minor_version   : 512
    compatible_brands: isomiso2avc1mp41
    encoder         : Lavf61.1.100
  Duration: 00:23:46.62, start: 0.000000, bitrate: 3713 kb/s
  Stream #1:0[0x1](und): Video: h264 (High) (avc1 / 0x31637661), yuv420p(tv, bt709, progressive), 1920x1080 [SAR 1:1 DAR 16:9], 3565 kb/s, 23.98 fps, 23.98 tbr, 24k tbn (default)
      Metadata:
        handler_name    : VideoHandler
        vendor_id       : [0][0][0][0]
        encoder         : Lavc61.3.100 h264_qsv
  Stream #1:1[0x2](und): Audio: aac (HE-AACv2) (mp4a / 0x6134706D), 48000 Hz, stereo, fltp, 144 kb/s (default)
      Metadata:
        handler_name    : SoundHandler
        vendor_id       : [0][0][0][0]
Stream mapping:
  Stream #0:0 (hevc) -> settb:default
  Stream #1:0 (h264) -> settb:default
  psnr:default -> Stream #0:0 (wrapped_avframe)
  Stream #0:1 -> #0:1 (aac (native) -> pcm_s16le (native))
Output #0, null, to 'pipe:':
  Metadata:
    COMPATIBLE_BRANDS: isomiso2avc1mp41
    MAJOR_BRAND     : isom
    MINOR_VERSION   : 512
    encoder         : Lavf61.7.100
  Stream #0:0: Video: wrapped_avframe, yuv420p10le(tv, bt709, progressive), 1920x1080 [SAR 1:1 DAR 16:9], q=2-31, 200 kb/s, 23.98 fps, 23.98 tbn
      Metadata:
        encoder         : Lavc61.19.100 wrapped_avframe
  Stream #0:1: Audio: pcm_s16le, 48000 Hz, stereo, s16, 1536 kb/s (default)
      Metadata:
        HANDLER_NAME    : SoundHandler
        VENDOR_ID       : [0][0][0][0]
        _STATISTICS_TAGS: BPS DURATION NUMBER_OF_FRAMES NUMBER_OF_BYTES
        BPS             : 192944
        DURATION        : 00:23:46.645000000
        NUMBER_OF_FRAMES: 66875
        NUMBER_OF_BYTES : 34407856
        _STATISTICS_WRITING_APP: mkvpropedit v66.0.0 ('Josie') 64-bit
        _STATISTICS_WRITING_DATE_UTC: 2025-05-30 13:32:50
        encoder         : Lavc61.19.100 pcm_s16le
frame=  163 fps=0.0 q=-0.0 size=N/A time=00:00:06.79 bitrate=N/A speed=13.2x    frame=  413 fps=399 q=-0.0 size=N/A time=00:00:17.22 bitrate=N/A speed=16.6x    frame=  671 fps=432 q=-0.0 size=N/A time=00:00:27.98 bitrate=N/A speed=  18x    frame=  887 fps=431 q=-0.0 size=N/A time=00:00:36.99 bitrate=N/A speed=  18x    frame= 1138 fps=441 q=-0.0 size=N/A time=00:00:47.46 bitrate=N/A speed=18.4x    frame= 1393 fps=451 q=-0.0 size=N/A time=00:00:58.09 bitrate=N/A speed=18.8x    frame= 1670 fps=462 q=-0.0 size=N/A time=00:01:09.65 bitrate=N/A speed=19.3x    frame= 1932 fps=469 q=-0.0 size=N/A time=00:01:20.58 bitrate=N/A speed=19.5x    frame= 2194 fps=472 q=-0.0 size=N/A time=00:01:31.50 bitrate=N/A speed=19.7x    frame= 2391 fps=464 q=-0.0 size=N/A time=00:01:39.72 bitrate=N/A speed=19.4x    frame= 2576 fps=454 q=-0.0 size=N/A time=00:01:47.44 bitrate=N/A speed=18.9x    frame= 2764 fps=447 q=-0.0 size=N/A time=00:01:55.28 bitrate=N/A speed=18.6x    frame= 2984 fps=445 q=-0.0 size=N/A time=00:02:04.45 bitrate=N/A speed=18.6x    frame= 3187 fps=442 q=-0.0 size=N/A time=00:02:12.92 bitrate=N/A speed=18.4x    frame= 3354 fps=433 q=-0.0 size=N/A time=00:02:19.88 bitrate=N/A speed=18.1x    frame= 3527 fps=427 q=-0.0 size=N/A time=00:02:27.10 bitrate=N/A speed=17.8x    frame= 3733 fps=426 q=-0.0 size=N/A time=00:02:35.69 bitrate=N/A speed=17.8x    frame= 3929 fps=423 q=-0.0 size=N/A time=00:02:43.87 bitrate=N/A speed=17.7x    frame= 4128 fps=422 q=-0.0 size=N/A time=00:02:52.17 bitrate=N/A speed=17.6x    frame= 4333 fps=420 q=-0.0 size=N/A time=00:03:00.72 bitrate=N/A speed=17.5x    frame= 4562 fps=422 q=-0.0 size=N/A time=00:03:10.27 bitrate=N/A speed=17.6x    frame= 4813 fps=425 q=-0.0 size=N/A time=00:03:20.74 bitrate=N/A speed=17.7x    frame= 5078 fps=428 q=-0.0 size=N/A time=00:03:31.79 bitrate=N/A speed=17.9x    frame= 5319 fps=430 q=-0.0 size=N/A time=00:03:41.84 bitrate=N/A speed=17.9x    frame= 5559 fps=431 q=-0.0 size=N/A time=00:03:51.85 bitrate=N/A speed=  18x    frame= 5823 fps=435 q=-0.0 size=N/A time=00:04:02.86 bitrate=N/A speed=18.1x    frame= 6093 fps=438 q=-0.0 size=N/A time=00:04:14.12 bitrate=N/A speed=18.3x    frame= 6348 fps=440 q=-0.0 size=N/A time=00:04:24.76 bitrate=N/A speed=18.3x    frame= 6610 fps=442 q=-0.0 size=N/A time=00:04:35.69 bitrate=N/A speed=18.4x    frame= 6880 fps=445 q=-0.0 size=N/A time=00:04:46.95 bitrate=N/A speed=18.6x    frame= 7123 fps=446 q=-0.0 size=N/A time=00:04:57.08 bitrate=N/A speed=18.6x    frame= 7378 fps=447 q=-0.0 size=N/A time=00:05:07.72 bitrate=N/A speed=18.7x    frame= 7650 fps=450 q=-0.0 size=N/A time=00:05:19.06 bitrate=N/A speed=18.8x    frame= 7905 fps=451 q=-0.0 size=N/A time=00:05:29.70 bitrate=N/A speed=18.8x    frame= 8101 fps=449 q=-0.0 size=N/A time=00:05:37.87 bitrate=N/A speed=18.7x    frame= 8287 fps=447 q=-0.0 size=N/A time=00:05:45.63 bitrate=N/A speed=18.6x    frame= 8511 fps=446 q=-0.0 size=N/A time=00:05:54.97 bitrate=N/A speed=18.6x    frame= 8747 fps=447 q=-0.0 size=N/A time=00:06:04.82 bitrate=N/A speed=18.6x    frame= 8989 fps=447 q=-0.0 size=N/A time=00:06:14.91 bitrate=N/A speed=18.6x    frame= 9238 fps=448 q=-0.0 size=N/A time=00:06:25.30 bitrate=N/A speed=18.7x    frame= 9494 fps=449 q=-0.0 size=N/A time=00:06:35.97 bitrate=N/A speed=18.7x    frame= 9721 fps=449 q=-0.0 size=N/A time=00:06:45.44 bitrate=N/A speed=18.7x    frame= 9941 fps=448 q=-0.0 size=N/A time=00:06:54.62 bitrate=N/A speed=18.7x    frame=10182 fps=449 q=-0.0 size=N/A time=00:07:04.67 bitrate=N/A speed=18.7x    frame=10424 fps=449 q=-0.0 size=N/A time=00:07:14.76 bitrate=N/A speed=18.7x    frame=10661 fps=450 q=-0.0 size=N/A time=00:07:24.65 bitrate=N/A speed=18.8x    frame=10901 fps=450 q=-0.0 size=N/A time=00:07:34.66 bitrate=N/A speed=18.8x    frame=11160 fps=451 q=-0.0 size=N/A time=00:07:45.46 bitrate=N/A speed=18.8x    frame=11429 fps=452 q=-0.0 size=N/A time=00:07:56.68 bitrate=N/A speed=18.9x    frame=11625 fps=451 q=-0.0 size=N/A time=00:08:04.85 bitrate=N/A speed=18.8x    frame=11852 fps=450 q=-0.0 size=N/A time=00:08:14.32 bitrate=N/A speed=18.8x    frame=12107 fps=451 q=-0.0 size=N/A time=00:08:24.96 bitrate=N/A speed=18.8x    frame=12379 fps=453 q=-0.0 size=N/A time=00:08:36.30 bitrate=N/A speed=18.9x    frame=12627 fps=453 q=-0.0 size=N/A time=00:08:46.65 bitrate=N/A speed=18.9x    frame=12872 fps=454 q=-0.0 size=N/A time=00:08:56.86 bitrate=N/A speed=18.9x    frame=13125 fps=454 q=-0.0 size=N/A time=00:09:07.42 bitrate=N/A speed=  19x    frame=13265 fps=451 q=-0.0 size=N/A time=00:09:13.26 bitrate=N/A speed=18.8x    frame=13432 fps=449 q=-0.0 size=N/A time=00:09:20.22 bitrate=N/A speed=18.7x    frame=13590 fps=446 q=-0.0 size=N/A time=00:09:26.81 bitrate=N/A speed=18.6x    frame=13833 fps=447 q=-0.0 size=N/A time=00:09:36.95 bitrate=N/A speed=18.6x    frame=14081 fps=447 q=-0.0 size=N/A time=00:09:47.29 bitrate=N/A speed=18.7x    frame=14335 fps=448 q=-0.0 size=N/A time=00:09:57.88 bitrate=N/A speed=18.7x    frame=14562 fps=448 q=-0.0 size=N/A time=00:10:07.35 bitrate=N/A speed=18.7x    frame=14818 fps=449 q=-0.0 size=N/A time=00:10:18.03 bitrate=N/A speed=18.7x    frame=15068 fps=449 q=-0.0 size=N/A time=00:10:28.46 bitrate=N/A speed=18.7x    frame=15308 fps=449 q=-0.0 size=N/A time=00:10:38.47 bitrate=N/A speed=18.7x    frame=15535 fps=449 q=-0.0 size=N/A time=00:10:47.93 bitrate=N/A speed=18.7x    frame=15781 fps=449 q=-0.0 size=N/A time=00:10:58.19 bitrate=N/A speed=18.7x    frame=16050 fps=450 q=-0.0 size=N/A time=00:11:09.41 bitrate=N/A speed=18.8x    frame=16319 fps=451 q=-0.0 size=N/A time=00:11:20.63 bitrate=N/A speed=18.8x    frame=16584 fps=452 q=-0.0 size=N/A time=00:11:31.69 bitrate=N/A speed=18.9x    frame=16828 fps=453 q=-0.0 size=N/A time=00:11:41.86 bitrate=N/A speed=18.9x    frame=17062 fps=453 q=-0.0 size=N/A time=00:11:51.62 bitrate=N/A speed=18.9x    frame=17309 fps=453 q=-0.0 size=N/A time=00:12:01.92 bitrate=N/A speed=18.9x    frame=17559 fps=453 q=-0.0 size=N/A time=00:12:12.35 bitrate=N/A speed=18.9x    frame=17755 fps=452 q=-0.0 size=N/A time=00:12:20.53 bitrate=N/A speed=18.9x    frame=17980 fps=452 q=-0.0 size=N/A time=00:12:29.91 bitrate=N/A speed=18.9x    frame=18205 fps=452 q=-0.0 size=N/A time=00:12:39.30 bitrate=N/A speed=18.8x    frame=18440 fps=452 q=-0.0 size=N/A time=00:12:49.10 bitrate=N/A speed=18.9x    frame=18678 fps=452 q=-0.0 size=N/A time=00:12:59.02 bitrate=N/A speed=18.9x    frame=18925 fps=453 q=-0.0 size=N/A time=00:13:09.33 bitrate=N/A speed=18.9x    frame=19136 fps=452 q=-0.0 size=N/A time=00:13:18.13 bitrate=N/A speed=18.8x    frame=19336 fps=451 q=-0.0 size=N/A time=00:13:26.47 bitrate=N/A speed=18.8x    frame=19530 fps=450 q=-0.0 size=N/A time=00:13:34.56 bitrate=N/A speed=18.8x    frame=19727 fps=450 q=-0.0 size=N/A time=00:13:42.78 bitrate=N/A speed=18.7x    frame=19903 fps=448 q=-0.0 size=N/A time=00:13:50.12 bitrate=N/A speed=18.7x    frame=20131 fps=448 q=-0.0 size=N/A time=00:13:59.63 bitrate=N/A speed=18.7x    frame=20371 fps=448 q=-0.0 size=N/A time=00:14:09.64 bitrate=N/A speed=18.7x    frame=20579 fps=448 q=-0.0 size=N/A time=00:14:18.31 bitrate=N/A speed=18.7x    frame=20779 fps=447 q=-0.0 size=N/A time=00:14:26.65 bitrate=N/A speed=18.6x    frame=21010 fps=447 q=-0.0 size=N/A time=00:14:36.29 bitrate=N/A speed=18.7x    frame=21251 fps=447 q=-0.0 size=N/A time=00:14:46.34 bitrate=N/A speed=18.7x    frame=21494 fps=448 q=-0.0 size=N/A time=00:14:56.47 bitrate=N/A speed=18.7x    frame=21763 fps=448 q=-0.0 size=N/A time=00:15:07.69 bitrate=N/A speed=18.7x    frame=22016 fps=449 q=-0.0 size=N/A time=00:15:18.25 bitrate=N/A speed=18.7x    frame=22277 fps=449 q=-0.0 size=N/A time=00:15:29.13 bitrate=N/A speed=18.7x    frame=22524 fps=450 q=-0.0 size=N/A time=00:15:39.43 bitrate=N/A speed=18.8x    frame=22776 fps=450 q=-0.0 size=N/A time=00:15:49.94 bitrate=N/A speed=18.8x    frame=23020 fps=450 q=-0.0 size=N/A time=00:16:00.12 bitrate=N/A speed=18.8x    frame=23256 fps=450 q=-0.0 size=N/A time=00:16:09.96 bitrate=N/A speed=18.8x    frame=23494 fps=450 q=-0.0 size=N/A time=00:16:19.89 bitrate=N/A speed=18.8x    frame=23704 fps=450 q=-0.0 size=N/A time=00:16:28.65 bitrate=N/A speed=18.8x    frame=23896 fps=449 q=-0.0 size=N/A time=00:16:36.66 bitrate=N/A speed=18.7x    frame=24151 fps=450 q=-0.0 size=N/A time=00:16:47.29 bitrate=N/A speed=18.8x    frame=24428 fps=450 q=-0.0 size=N/A time=00:16:58.85 bitrate=N/A speed=18.8x    frame=24688 fps=451 q=-0.0 size=N/A time=00:17:09.69 bitrate=N/A speed=18.8x    frame=24876 fps=450 q=-0.0 size=N/A time=00:17:17.53 bitrate=N/A speed=18.8x    frame=25124 fps=450 q=-0.0 size=N/A time=00:17:27.88 bitrate=N/A speed=18.8x    frame=25371 fps=451 q=-0.0 size=N/A time=00:17:38.18 bitrate=N/A speed=18.8x    frame=25586 fps=450 q=-0.0 size=N/A time=00:17:47.14 bitrate=N/A speed=18.8x    frame=25854 fps=451 q=-0.0 size=N/A time=00:17:58.32 bitrate=N/A speed=18.8x    frame=26096 fps=451 q=-0.0 size=N/A time=00:18:08.42 bitrate=N/A speed=18.8x    frame=26334 fps=451 q=-0.0 size=N/A time=00:18:18.34 bitrate=N/A speed=18.8x    frame=26571 fps=451 q=-0.0 size=N/A time=00:18:28.23 bitrate=N/A speed=18.8x    frame=26807 fps=451 q=-0.0 size=N/A time=00:18:38.07 bitrate=N/A speed=18.8x    frame=27041 fps=451 q=-0.0 size=N/A time=00:18:47.83 bitrate=N/A speed=18.8x    frame=27316 fps=452 q=-0.0 size=N/A time=00:18:59.30 bitrate=N/A speed=18.8x    frame=27559 fps=452 q=-0.0 size=N/A time=00:19:09.43 bitrate=N/A speed=18.9x    frame=27769 fps=452 q=-0.0 size=N/A time=00:19:18.19 bitrate=N/A speed=18.8x    frame=27987 fps=452 q=-0.0 size=N/A time=00:19:27.29 bitrate=N/A speed=18.8x    frame=28241 fps=452 q=-0.0 size=N/A time=00:19:37.88 bitrate=N/A speed=18.8x    frame=28491 fps=452 q=-0.0 size=N/A time=00:19:48.31 bitrate=N/A speed=18.9x    frame=28680 fps=451 q=-0.0 size=N/A time=00:19:56.19 bitrate=N/A speed=18.8x    frame=28899 fps=451 q=-0.0 size=N/A time=00:20:05.32 bitrate=N/A speed=18.8x    frame=29097 fps=451 q=-0.0 size=N/A time=00:20:13.58 bitrate=N/A speed=18.8x    frame=29346 fps=451 q=-0.0 size=N/A time=00:20:23.97 bitrate=N/A speed=18.8x    frame=29570 fps=451 q=-0.0 size=N/A time=00:20:33.31 bitrate=N/A speed=18.8x    frame=29801 fps=451 q=-0.0 size=N/A time=00:20:42.95 bitrate=N/A speed=18.8x    frame=30039 fps=451 q=-0.0 size=N/A time=00:20:52.87 bitrate=N/A speed=18.8x    frame=30268 fps=451 q=-0.0 size=N/A time=00:21:02.42 bitrate=N/A speed=18.8x    frame=30438 fps=450 q=-0.0 size=N/A time=00:21:09.51 bitrate=N/A speed=18.8x    frame=30620 fps=449 q=-0.0 size=N/A time=00:21:17.10 bitrate=N/A speed=18.7x    frame=30823 fps=449 q=-0.0 size=N/A time=00:21:25.57 bitrate=N/A speed=18.7x    frame=31016 fps=448 q=-0.0 size=N/A time=00:21:33.62 bitrate=N/A speed=18.7x    frame=31203 fps=447 q=-0.0 size=N/A time=00:21:41.42 bitrate=N/A speed=18.7x    frame=31340 fps=446 q=-0.0 size=N/A time=00:21:47.13 bitrate=N/A speed=18.6x    frame=31529 fps=446 q=-0.0 size=N/A time=00:21:55.02 bitrate=N/A speed=18.6x    frame=31796 fps=446 q=-0.0 size=N/A time=00:22:06.15 bitrate=N/A speed=18.6x    frame=31954 fps=445 q=-0.0 size=N/A time=00:22:12.74 bitrate=N/A speed=18.6x    frame=32107 fps=444 q=-0.0 size=N/A time=00:22:19.12 bitrate=N/A speed=18.5x    frame=32257 fps=443 q=-0.0 size=N/A time=00:22:25.38 bitrate=N/A speed=18.5x    frame=32394 fps=442 q=-0.0 size=N/A time=00:22:31.09 bitrate=N/A speed=18.4x    frame=32545 fps=441 q=-0.0 size=N/A time=00:22:37.39 bitrate=N/A speed=18.4x    frame=32710 fps=440 q=-0.0 size=N/A time=00:22:44.27 bitrate=N/A speed=18.3x    frame=32879 fps=439 q=-0.0 size=N/A time=00:22:51.32 bitrate=N/A speed=18.3x    frame=33064 fps=439 q=-0.0 size=N/A time=00:22:59.04 bitrate=N/A speed=18.3x    frame=33246 fps=438 q=-0.0 size=N/A time=00:23:06.63 bitrate=N/A speed=18.3x    frame=33407 fps=437 q=-0.0 size=N/A time=00:23:13.35 bitrate=N/A speed=18.2x    frame=33566 fps=436 q=-0.0 size=N/A time=00:23:19.98 bitrate=N/A speed=18.2x    frame=33763 fps=436 q=-0.0 size=N/A time=00:23:28.19 bitrate=N/A speed=18.2x    frame=33975 fps=436 q=-0.0 size=N/A time=00:23:37.04 bitrate=N/A speed=18.2x    frame=34174 fps=435 q=-0.0 size=N/A time=00:23:45.34 bitrate=N/A speed=18.2x    [Parsed_psnr_10 @ 00000252702f2a40] PSNR y:46.112699 u:49.597744 v:49.761112 average:47.010101 min:31.256654 max:inf
[out#0/null @ 00000252702ff2c0] video:14697KiB audio:267500KiB subtitle:0KiB other streams:0KiB global headers:0KiB muxing overhead: unknown
frame=34203 fps=435 q=-0.0 Lsize=N/A time=00:23:46.55 bitrate=N/A speed=18.2x    
